<svg xmlns="http://www.w3.org/2000/svg" viewBox="0 0 64 64" role="img" aria-label="Con Sabor Flamenco">
  <defs>
    <linearGradient id="bg" x1="10" y1="8" x2="56" y2="58" gradientUnits="userSpaceOnUse">
      <stop stop-color="#151216"/>
      <stop offset="1" stop-color="#050506"/>
    </linearGradient>
    <linearGradient id="red" x1="8" y1="48" x2="56" y2="18" gradientUnits="userSpaceOnUse">
      <stop stop-color="#7E141D"/>
      <stop offset="0.48" stop-color="#C94F5C"/>
      <stop offset="1" stop-color="#F2D28B"/>
    </linearGradient>
  </defs>
  <rect width="64" height="64" rx="16" fill="url(#bg)"/>
  <path d="M9 44c10-11 22-14 34-10 6 2 10 2 14-2-4 9-13 14-25 15-9 1-17 2-23 7 1-4 1-7 0-10Z" fill="url(#red)"/>
  <path d="M48 10c-7 3-10 9-8 17 1 5 5 9 10 10-8 1-15-4-17-12-2-9 3-17 15-15Z" fill="none" stroke="#F8E5B6" stroke-width="2.2" stroke-linecap="round"/>
  <text x="32" y="34" fill="#FFF8EF" font-family="Georgia, 'Times New Roman', serif" font-size="18" font-weight="700" text-anchor="middle" letter-spacing="-1">CSF</text>
</svg>
